<?xml version="1.0" encoding="UTF-8"?>
<svg version="1.1" xmlns="http://www.w3.org/2000/svg" width="128" height="128">
<path d="M0 0 C1.0703125 1.8984375 1.0703125 1.8984375 2 4 C2.91609864 5.2406593 3.87602718 6.45004233 4.875 7.625 C5.36742187 8.21539062 5.85984375 8.80578125 6.3671875 9.4140625 C7.94485012 11.1078318 7.94485012 11.1078318 10.1328125 12.05859375 C12.80267799 13.40469748 12.93813371 15.27896764 14 18 C16.34917399 20.33087771 17.64810475 20.96532767 20.97338867 21.29296875 C22.1101001 21.25816406 23.24681152 21.22335938 24.41796875 21.1875 C26.30032227 21.15269531 26.30032227 21.15269531 28.22070312 21.1171875 C30.84572022 21.03963899 33.4707206 20.96152262 36.09570312 20.8828125 C49.83447454 20.63008088 49.83447454 20.63008088 56 24 C57.8125 26.375 57.8125 26.375 59 29 C59.680625 29.78375 60.36125 30.5675 61.0625 31.375 C64.94498914 36.63514657 65.25837416 42.31526845 65.1875 48.6875 C65.18105469 49.97011719 65.17460938 51.25273438 65.16796875 52.57421875 C65.03425165 55.30142571 64.7106165 57.40740166 64 60 C51.30877571 60.0694916 38.61759665 60.12280712 25.92622089 60.15543652 C20.03318375 60.1710965 14.14027671 60.1923411 8.24731445 60.22631836 C2.56093757 60.25889955 -3.1253141 60.27685051 -8.81177711 60.28463173 C-10.98192122 60.29017743 -13.15205843 60.30100673 -15.32214928 60.31719017 C-18.3603436 60.33894765 -21.39801968 60.34196759 -24.4362793 60.34057617 C-25.33467529 60.351362 -26.23307129 60.36214783 -27.15869141 60.3732605 C-31.92516021 60.3496191 -35.14084955 60.12841277 -39 57 C-40.0625 55.125 -40.0625 55.125 -41 53 C-41.63518555 52.24895996 -42.27037109 51.49791992 -42.92480469 50.72412109 C-45.07216284 47.90527141 -46.06093894 45.64494826 -47.140625 42.2890625 C-47.48867188 41.20882812 -47.83671875 40.12859375 -48.1953125 39.015625 C-48.54335938 37.89671875 -48.89140625 36.7778125 -49.25 35.625 C-49.61351562 34.51382813 -49.97703125 33.40265625 -50.3515625 32.2578125 C-53.14310483 23.44241568 -54.30024691 18.60049383 -50 10 C-44.72 10 -39.44 10 -34 10 C-33.34 11.32 -32.68 12.64 -32 14 C-30.6058573 16.65859771 -29.24394805 18.97877632 -27 21 C-24.09650948 21.61948314 -22.00130218 21.3560867 -19 21 C-19.144375 19.865625 -19.28875 18.73125 -19.4375 17.5625 C-19.52515625 16.83546875 -19.6128125 16.1084375 -19.703125 15.359375 C-19.90138317 13.7837443 -20.12024394 12.21057237 -20.359375 10.640625 C-20.46765625 9.87234375 -20.5759375 9.1040625 -20.6875 8.3125 C-20.79449219 7.60738281 -20.90148438 6.90226562 -21.01171875 6.17578125 C-20.99694672 3.43310819 -20.13102876 1.47439626 -19 -1 C-16.58388467 -1.22237877 -14.1682283 -1.42832339 -11.75 -1.625 C-10.72712891 -1.72167969 -10.72712891 -1.72167969 -9.68359375 -1.8203125 C-3.01271303 -2.33843916 -3.01271303 -2.33843916 0 0 Z M-12 7 C-8 8 -8 8 -8 8 Z M-13 8 C-12 11 -12 11 -12 11 Z M-8.8125 8.25 C-9.534375 8.4975 -10.25625 8.745 -11 9 C-12.25823831 13.31282943 -11.64963867 15.78528873 -10.0625 19.9375 C-8.44888222 24.17666535 -7.77644688 27.45441982 -8 32 C-8.66 31.67 -9.32 31.34 -10 31 C-11.52148326 30.91627341 -13.04655778 30.89269973 -14.5703125 30.90234375 C-15.91416016 30.90717773 -15.91416016 30.90717773 -17.28515625 30.91210938 C-18.22230469 30.92048828 -19.15945312 30.92886719 -20.125 30.9375 C-21.54232422 30.94426758 -21.54232422 30.94426758 -22.98828125 30.95117188 C-25.32558387 30.96297643 -27.66276061 30.97944241 -30 31 C-30.28359375 30.24460937 -30.5671875 29.48921875 -30.859375 28.7109375 C-32.45223532 24.92516675 -34.01012682 22.85396985 -37 20 C-40.25789019 19.97172423 -40.25789019 19.97172423 -43 21 C-44.62574697 26.82797012 -43.13376753 31.13878984 -41.3125 36.6875 C-41.05533203 37.54150391 -40.79816406 38.39550781 -40.53320312 39.27539062 C-40.1397168 40.50612305 -40.1397168 40.50612305 -39.73828125 41.76171875 C-39.50149658 42.50381592 -39.26471191 43.24591309 -39.02075195 44.01049805 C-37.65790906 46.66675414 -36.62533629 47.5183273 -34 49 C-31.05229284 49.2755129 -28.32101553 49.37941615 -25.37597656 49.34057617 C-24.50732468 49.34101425 -23.63867279 49.34145233 -22.74369812 49.34190369 C-19.87577754 49.33981557 -17.00844332 49.31648338 -14.140625 49.29296875 C-12.15094319 49.28737288 -10.16125725 49.28310274 -8.17156982 49.28010559 C-2.93703786 49.26865614 2.29724403 49.23918796 7.53167725 49.20599365 C12.87394833 49.17529502 18.21625986 49.16160069 23.55859375 49.14648438 C34.03917232 49.11431847 44.51956536 49.06312078 55 49 C55.2765289 46.92002174 55.52030075 44.8356692 55.75 42.75 C55.88921875 41.58984375 56.0284375 40.4296875 56.171875 39.234375 C56.29251651 35.94119979 56.29251651 35.94119979 54.24559021 33.60253906 C50.94168926 31.24474897 47.80118017 31.57804987 43.91015625 31.75 C42.73784706 31.77271973 42.73784706 31.77271973 41.54185486 31.79589844 C38.20629775 31.86114853 34.87272004 31.97366922 31.53833008 32.08203125 C29.09986496 32.15450103 26.66172027 32.20278796 24.22265625 32.25 C23.47355484 32.28319336 22.72445343 32.31638672 21.95265198 32.35058594 C18.22314544 32.42024027 16.20702161 32.13126708 13.02368164 30.11279297 C10.88829498 27.88337614 10.59720239 26.91575285 10 24 C8.49598122 22.31094737 8.49598122 22.31094737 6.625 20.875 C6.01914063 20.37742187 5.41328125 19.87984375 4.7890625 19.3671875 C3.23853637 18.18228762 1.62369643 17.08246429 0 16 C-0.12375 15.38125 -0.2475 14.7625 -0.375 14.125 C-1.59673199 9.97111124 -4.56514725 7.87245753 -8.8125 8.25 Z M-46 19 C-45 21 -45 21 -45 21 Z M-44 19 C-40 20 -40 20 -40 20 Z M-18 19 C-17 22 -17 22 -17 22 Z M-45 21 C-44 24 -44 24 -44 24 Z M-24 22 C-24 22.33 -24 22.66 -24 23 C-22.02 23 -20.04 23 -18 23 C-18 22.67 -18 22.34 -18 22 C-19.98 22 -21.96 22 -24 22 Z M20 22 C20 22.33 20 22.66 20 23 C28.91 23 37.82 23 47 23 C47 22.67 47 22.34 47 22 C38.09 22 29.18 22 20 22 Z M16 31 C16 31.33 16 31.66 16 32 C26.89 32 37.78 32 49 32 C49 31.67 49 31.34 49 31 C38.11 31 27.22 31 16 31 Z M56 38 C56 42.29 56 46.58 56 51 C56.33 51 56.66 51 57 51 C57 46.71 57 42.42 57 38 C56.67 38 56.34 38 56 38 Z M-30 50 C-30 50.33 -30 50.66 -30 51 C-1.95 51 26.1 51 55 51 C55 50.67 55 50.34 55 50 C26.95 50 -1.1 50 -30 50 Z " fill="#000000" transform="translate(59,25)"/>
<path d="M0 0 C25.74 0 51.48 0 78 0 C79 6 79 6 78 10 C52.26 10 26.52 10 0 10 C-1 4 -1 4 0 0 Z " fill="#000000" transform="translate(33,103)"/>
<path d="M0 0 C30.03 0 60.06 0 91 0 C91 0.33 91 0.66 91 1 C60.97 1 30.94 1 0 1 C0 0.67 0 0.34 0 0 Z " fill="#000000" transform="translate(30,85)"/>
<path d="M0 0 C24.42 0 48.84 0 74 0 C74 0.33 74 0.66 74 1 C49.58 1 25.16 1 0 1 C0 0.67 0 0.34 0 0 Z " fill="#000000" transform="translate(35,113)"/>
<path d="M0 0 C24.42 0 48.84 0 74 0 C74 0.33 74 0.66 74 1 C49.58 1 25.16 1 0 1 C0 0.67 0 0.34 0 0 Z " fill="#000000" transform="translate(35,102)"/>
<path d="M0 0 C5.94 0 11.88 0 18 0 C18 0.33 18 0.66 18 1 C12.06 1 6.12 1 0 1 C0 0.67 0 0.34 0 0 Z " fill="#000000" transform="translate(31,57)"/>
<path d="M0 0 C0.33 0 0.66 0 1 0 C1 4.95 1 9.9 1 15 C0.67 15 0.34 15 0 15 C0 10.05 0 5.1 0 0 Z " fill="#000000" transform="translate(125,66)"/>
<path d="M0 0 C3.63 0 7.26 0 11 0 C11 0.33 11 0.66 11 1 C7.37 1 3.74 1 0 1 C0 0.67 0 0.34 0 0 Z " fill="#000000" transform="translate(12,34)"/>
<path d="M0 0 C3.63 0 7.26 0 11 0 C11 0.33 11 0.66 11 1 C7.37 1 3.74 1 0 1 C0 0.67 0 0.34 0 0 Z " fill="#000000" transform="translate(44,22)"/>
<path d="M0 0 C0.33 0 0.66 0 1 0 C1 2.31 1 4.62 1 7 C0.67 7 0.34 7 0 7 C0 4.69 0 2.38 0 0 Z " fill="#000000" transform="translate(4,41)"/>
<path d="M0 0 C0.33 0 0.66 0 1 0 C1 1.98 1 3.96 1 6 C0.67 6 0.34 6 0 6 C0 4.02 0 2.04 0 0 Z " fill="#000000" transform="translate(36,29)"/>
<path d="M0 0 C1 4 1 4 1 4 Z " fill="#000000" transform="translate(10,64)"/>
<path d="M0 0 C1 4 1 4 1 4 Z " fill="#000000" transform="translate(20,62)"/>
<path d="M0 0 C1 4 1 4 1 4 Z " fill="#000000" transform="translate(124,61)"/>
<path d="M0 0 C1 4 1 4 1 4 Z " fill="#000000" transform="translate(7,54)"/>
<path d="M0 0 C1 4 1 4 1 4 Z " fill="#000000" transform="translate(17,52)"/>
<path d="" fill="#000000" transform="translate(0,0)"/>
<path d="" fill="#000000" transform="translate(0,0)"/>
<path d="" fill="#000000" transform="translate(0,0)"/>
<path d="" fill="#000000" transform="translate(0,0)"/>
<path d="" fill="#000000" transform="translate(0,0)"/>
<path d="" fill="#000000" transform="translate(0,0)"/>
<path d="" fill="#000000" transform="translate(0,0)"/>
<path d="" fill="#000000" transform="translate(0,0)"/>
<path d="" fill="#000000" transform="translate(0,0)"/>
<path d="" fill="#000000" transform="translate(0,0)"/>
<path d="" fill="#000000" transform="translate(0,0)"/>
<path d="" fill="#000000" transform="translate(0,0)"/>
<path d="" fill="#000000" transform="translate(0,0)"/>
<path d="" fill="#000000" transform="translate(0,0)"/>
<path d="" fill="#000000" transform="translate(0,0)"/>
<path d="" fill="#000000" transform="translate(0,0)"/>
<path d="" fill="#000000" transform="translate(0,0)"/>
<path d="" fill="#000000" transform="translate(0,0)"/>
<path d="" fill="#000000" transform="translate(0,0)"/>
<path d="" fill="#000000" transform="translate(0,0)"/>
<path d="" fill="#000000" transform="translate(0,0)"/>
<path d="" fill="#000000" transform="translate(0,0)"/>
<path d="" fill="#000000" transform="translate(0,0)"/>
<path d="" fill="#000000" transform="translate(0,0)"/>
<path d="" fill="#000000" transform="translate(0,0)"/>
<path d="" fill="#000000" transform="translate(0,0)"/>
<path d="" fill="#000000" transform="translate(0,0)"/>
<path d="" fill="#000000" transform="translate(0,0)"/>
<path d="" fill="#000000" transform="translate(0,0)"/>
<path d="" fill="#000000" transform="translate(0,0)"/>
<path d="M0 0 C2 1 2 1 2 1 Z " fill="#000000" transform="translate(109,58)"/>
<path d="" fill="#000000" transform="translate(0,0)"/>
<path d="" fill="#000000" transform="translate(0,0)"/>
<path d="" fill="#000000" transform="translate(0,0)"/>
<path d="" fill="#000000" transform="translate(0,0)"/>
<path d="" fill="#000000" transform="translate(0,0)"/>
<path d="" fill="#000000" transform="translate(0,0)"/>
<path d="M0 0 C2 1 2 1 2 1 Z " fill="#000000" transform="translate(42,23)"/>
<path d="" fill="#000000" transform="translate(0,0)"/>
<path d="" fill="#000000" transform="translate(0,0)"/>
<path d="" fill="#000000" transform="translate(0,0)"/>
<path d="" fill="#000000" transform="translate(0,0)"/>
<path d="" fill="#000000" transform="translate(0,0)"/>
<path d="" fill="#000000" transform="translate(0,0)"/>
<path d="" fill="#000000" transform="translate(0,0)"/>
<path d="" fill="#000000" transform="translate(0,0)"/>
<path d="" fill="#000000" transform="translate(0,0)"/>
<path d="" fill="#000000" transform="translate(0,0)"/>
<path d="" fill="#000000" transform="translate(0,0)"/>
<path d="" fill="#000000" transform="translate(0,0)"/>
<path d="" fill="#000000" transform="translate(0,0)"/>
<path d="" fill="#000000" transform="translate(0,0)"/>
<path d="" fill="#000000" transform="translate(0,0)"/>
<path d="" fill="#000000" transform="translate(0,0)"/>
<path d="" fill="#000000" transform="translate(0,0)"/>
<path d="" fill="#000000" transform="translate(0,0)"/>
<path d="" fill="#000000" transform="translate(0,0)"/>
<path d="" fill="#000000" transform="translate(0,0)"/>
<path d="" fill="#000000" transform="translate(0,0)"/>
<path d="" fill="#000000" transform="translate(0,0)"/>
<path d="" fill="#000000" transform="translate(0,0)"/>
<path d="" fill="#000000" transform="translate(0,0)"/>
<path d="" fill="#000000" transform="translate(0,0)"/>
<path d="" fill="#000000" transform="translate(0,0)"/>
<path d="" fill="#000000" transform="translate(0,0)"/>
<path d="" fill="#000000" transform="translate(0,0)"/>
<path d="" fill="#000000" transform="translate(0,0)"/>
<path d="" fill="#000000" transform="translate(0,0)"/>
<path d="" fill="#000000" transform="translate(0,0)"/>
<path d="" fill="#000000" transform="translate(0,0)"/>
<path d="" fill="#000000" transform="translate(0,0)"/>
<path d="" fill="#000000" transform="translate(0,0)"/>
<path d="" fill="#000000" transform="translate(0,0)"/>
<path d="" fill="#000000" transform="translate(0,0)"/>
<path d="" fill="#000000" transform="translate(0,0)"/>
<path d="" fill="#000000" transform="translate(0,0)"/>
<path d="" fill="#000000" transform="translate(0,0)"/>
<path d="" fill="#000000" transform="translate(0,0)"/>
<path d="" fill="#000000" transform="translate(0,0)"/>
<path d="" fill="#000000" transform="translate(0,0)"/>
<path d="" fill="#000000" transform="translate(0,0)"/>
<path d="" fill="#000000" transform="translate(0,0)"/>
<path d="" fill="#000000" transform="translate(0,0)"/>
<path d="" fill="#000000" transform="translate(0,0)"/>
<path d="" fill="#000000" transform="translate(0,0)"/>
<path d="" fill="#000000" transform="translate(0,0)"/>
<path d="" fill="#000000" transform="translate(0,0)"/>
<path d="" fill="#000000" transform="translate(0,0)"/>
<path d="" fill="#000000" transform="translate(0,0)"/>
<path d="" fill="#000000" transform="translate(0,0)"/>
<path d="" fill="#000000" transform="translate(0,0)"/>
</svg>
